# xmcd CD database file
# Copyright (C) 1996 Ti Kan
#
# Track frame offsets:
# 	187
# 	10622
# 	24067
# 	35440
# 	48777
# 	61490
# 	73300
# 	84257
# 	97980
# 	110725
#
# Disc length: 1622 seconds
#
# Revision: 1
# Processed by: cddbd v1.4b41PL1 Copyright (c) Steve Scherf et al.
# Submitted via: DiscPlay 3.3
#
DISCID=7106540a
DTITLE=George Jones - All-Time Greatest Hits -- Volume I
DYEAR=1900
DGENRE=
TTITLE0=The Race is On
TTITLE1=My Favorite Lies
TTITLE2=Tender Years
TTITLE3=The Window Up Above
TTITLE4=She Thinks I Still Care
TTITLE5=White Lightnin'
TTITLE6=Walk Through This World With Me
TTITLE7=She's Mine
TTITLE8=I'll Share My World With You
TTITLE9=Why Baby Why
EXTD=
EXTT0=
EXTT1=
EXTT2=
EXTT3=
EXTT4=
EXTT5=
EXTT6=
EXTT7=
EXTT8=
EXTT9=
PLAYORDER=
